<svg id="Layer_1" data-name="Layer 1" xmlns="http://www.w3.org/2000/svg" viewBox="0 0 144 72"><defs><style>.cls-1{fill:#ff7600;}.cls-2{font-size:18.02px;fill:blue;font-family:ArialMT, Arial;}.cls-3{letter-spacing:-0.07em;}.cls-4{letter-spacing:0em;}.cls-5{letter-spacing:-0.04em;}</style></defs><title>Artboard 1</title><path class="cls-1" d="M40.87,62.35c-2.71.09-2.57,0-3.53-2.8a70.82,70.82,0,0,0-3.56-8.65,6.81,6.81,0,0,1-.33-6.21c1.31-2.76.47-5.13-1.2-7.2-1.25-1.55-2.08-3-1.42-5,.4-1.2-.15-1.88-1.42-2A2.39,2.39,0,0,1,28,30.1c-1.35-1.37-2.78-.74-4.3-.46-2.21.4-4.59,1.1-6.65.63-1.75-.41-3.15-2.3-4.7-3.55-.12-.1-.11-.37-.23-.5-2.38-2.37-2.08-4.91-1.66-8.15C11,13.94,12.64,11.25,16,9.18c.3-.19.7-.48.75-.78.38-2.18,2.45-2.81,3.74-4.14a1.71,1.71,0,0,1,1-.47C24.69,3.51,28,3.26,31.26,3a1.83,1.83,0,0,1,2.27,2,2.32,2.32,0,0,0,.95,1.46,8.86,8.86,0,0,0,2.45,1.2c.56.18,1.58.27,1.78,0,1-1.51,2.37-1,3.68-.82,1.75.18,3.5.46,5.25.47,2.87,0,3.43.55,3.32,3.47a2.79,2.79,0,0,0,.3,1.4c1.26,2.17,2.44,4.4,3.9,6.43a28.36,28.36,0,0,0,4.38,4.84c.58.5,1.9.2,2.88.19s1.85-.12,2.77-.18A11,11,0,0,1,65,26.54a13.52,13.52,0,0,1-4.93,6.76,25.05,25.05,0,0,0-2.24,2.45c-1.82,1.72-1.78,3.77-1.2,5.94.94,3.49.15,5.66-2.88,7.59A3.12,3.12,0,0,0,52,52.58c.09.75-.72,1.62-1.2,2.4-.18.29-.79.44-.8.68-.15,2-1.8,2.82-3,4C44.52,62.2,44.55,62.22,40.87,62.35Z"/><path class="cls-1" d="M57.4,54c.44-2.33.71-4.07,1.12-5.77.09-.4.59-.75,1-1.05.89-.72,1.87-1.36,2.73-2.12,1.1-1,1.69-.91,2.05.49a3.15,3.15,0,0,1,0,1.8c-.9,2.35-1.89,4.67-2.89,7-.47,1.1-1.29,2.1-2.52,1.53C58.1,55.5,57.69,54.39,57.4,54Z"/><text class="cls-2" transform="translate(73 19.66)">AFRI<tspan x="0" y="21.62">RO</tspan><tspan class="cls-3" x="27.03" y="21.62">Y</tspan><tspan class="cls-4" x="37.71" y="21.62">A</tspan><tspan class="cls-5" x="49.73" y="21.62">L</tspan><tspan x="0" y="43.24">HOTE</tspan><tspan class="cls-5" x="50.05" y="43.24">L</tspan></text></svg>