<svg id="Layer_1" data-name="Layer 1" xmlns="http://www.w3.org/2000/svg" viewBox="0 0 24 24"><defs><style>.cls-1{fill:#ff7600;}.cls-2{fill:#fff;}</style></defs><title>kitchen</title><path class="cls-1" d="M24,12A12,12,0,1,1,12,0,12,12,0,0,1,24,12Z"/><path class="cls-2" d="M8.94,6.64h1.53v2.3H8.94Zm0,5.36h1.53v3.83H8.94ZM16.6,4.35H7.4A1.53,1.53,0,0,0,5.87,5.87V18.13A1.54,1.54,0,0,0,7.4,19.66h9.2a1.54,1.54,0,0,0,1.53-1.53V5.87A1.52,1.52,0,0,0,16.6,4.35Zm0,13.78H7.4V11.22h9.2Zm0-8.43H7.4V5.87h9.2Z"/></svg>