<svg id="Layer_1" data-name="Layer 1" xmlns="http://www.w3.org/2000/svg" viewBox="0 0 24 24"><defs><style>.cls-1{fill:#ff7600;}.cls-2{fill:#fff;}</style></defs><title>yard</title><path class="cls-1" d="M24,12A12,12,0,1,1,12,0,12,12,0,0,1,24,12Z"/><path class="cls-2" d="M16.39,12.73A4.4,4.4,0,0,0,12,17.12,4.4,4.4,0,0,0,16.39,12.73Zm-8.78,0A4.4,4.4,0,0,0,12,17.12,4.4,4.4,0,0,0,7.61,12.73Zm1.46-1.44a1.15,1.15,0,0,0,1.15,1.14,1.14,1.14,0,0,0,.65-.2v.08a1.14,1.14,0,1,0,2.28,0v-.08a1.22,1.22,0,0,0,.65.2,1.14,1.14,0,0,0,.49-2.17,1.14,1.14,0,1,0-1.14-2V8.21a1.14,1.14,0,0,0-2.28,0V8.3a1.14,1.14,0,0,0-.65-.2A1.15,1.15,0,0,0,9.07,9.24a1.17,1.17,0,0,0,.66,1A1.13,1.13,0,0,0,9.07,11.29ZM12,9.12a1.14,1.14,0,1,1-1.14,1.14A1.14,1.14,0,0,1,12,9.12Zm5.85-3v11.7H6.15V6.15h11.7m0-1.46H6.15A1.47,1.47,0,0,0,4.69,6.15v11.7a1.47,1.47,0,0,0,1.46,1.46h11.7a1.47,1.47,0,0,0,1.46-1.46V6.15A1.47,1.47,0,0,0,17.85,4.69Z"/></svg>