<svg id="Layer_1" data-name="Layer 1" xmlns="http://www.w3.org/2000/svg" viewBox="0 0 24 24"><defs><style>.cls-1{fill:#ff7600;}.cls-2{fill:#fff;}</style></defs><title>ac_unit</title><path class="cls-1" d="M24,12A12,12,0,1,1,12,0,12,12,0,0,1,24,12Z"/><path class="cls-2" d="M20.4,11.16H16.9l2.72-2.72L18.43,7.25l-3.91,3.91H12.84V9.48l3.91-3.91L15.56,4.38,12.84,7.1V3.6H11.16V7.1L8.44,4.38,7.25,5.57l3.91,3.91v1.68H9.48L5.57,7.25,4.38,8.44,7.1,11.16H3.6v1.68H7.1L4.38,15.56l1.19,1.19,3.91-3.91h1.68v1.68L7.25,18.43l1.19,1.19,2.72-2.72v3.5h1.68V16.9l2.72,2.72,1.19-1.19-3.91-3.91V12.84h1.68l3.91,3.91,1.19-1.19L16.9,12.84h3.5Z"/></svg>