<?xml version="1.0" encoding="utf-8"?>
<!-- Generator: Adobe Illustrator 22.0.0, SVG Export Plug-In . SVG Version: 6.00 Build 0)  -->
<svg version="1.1" id="Layer_1" xmlns="http://www.w3.org/2000/svg" xmlns:xlink="http://www.w3.org/1999/xlink" x="0px" y="0px"
	 viewBox="0 0 165.6 216" style="enable-background:new 0 0 165.6 216;" xml:space="preserve">
<style type="text/css">
	.st0{fill:#FF7600;}
</style>
<title>Afriroyal logo</title>
<path class="st0" d="M89.1,163.9c-5.5,0.2-5.2,0.1-7.1-5.7c-2-6-4.4-11.8-7.2-17.5c-2.1-4.3-2.6-8.4-0.7-12.6
	c2.6-5.6,0.9-10.4-2.4-14.5c-2.5-3.2-4.2-6-2.9-10.1c0.8-2.4-0.3-3.8-2.9-4.1c-1-0.1-2.2-0.2-2.8-0.8c-2.7-2.8-5.6-1.5-8.7-1
	C50,98.5,45.2,100,41,99c-3.5-0.8-6.4-4.6-9.5-7.2c-0.2-0.2-0.2-0.8-0.5-1c-4.8-4.8-4.2-9.9-3.4-16.5c1.1-8.4,4.3-13.8,11-18
	c0.6-0.4,1.4-1,1.5-1.6c0.8-4.4,5-5.7,7.6-8.4c0.5-0.5,1.2-0.9,2-1c6.6-0.6,13.3-1.1,19.9-1.6c2.9-0.2,4.4,0.9,4.6,4
	c0.2,1.2,0.9,2.3,1.9,3c1.5,1.1,3.2,1.9,5,2.4c1.1,0.3,3.2,0.5,3.6,0c2.1-3,4.8-1.9,7.4-1.7c3.5,0.3,7.1,0.9,10.6,1
	c5.8,0,6.9,1.1,6.7,7c-0.1,1,0.2,2,0.6,2.8c2.4,4.5,5,8.8,7.9,13c2.6,3.6,5.5,6.9,8.9,9.8c1.2,1,3.8,0.4,5.8,0.4s3.7-0.2,5.6-0.4
	c-0.1,2.1,0.3,4.4-0.4,6.3c-1.8,5.5-5.3,10.3-10,13.7c-1.8,1.3-2.9,3.4-4.5,5c-3.7,3.5-3.6,7.6-2.4,12c1.9,7.1,0.3,11.5-5.8,15.4
	c-2.5,1.6-4,3.3-3.6,6.7c0.2,1.5-1.5,3.3-2.4,4.9c-0.4,0.6-1.6,0.9-1.6,1.4c-0.3,4-3.6,5.7-6,8.1C96.5,163.6,96.6,163.6,89.1,163.9z
	"/>
<path class="st0" d="M122.6,147c0.9-4.7,1.4-8.2,2.3-11.7c0.2-0.8,1.2-1.5,2-2.1c1.8-1.5,3.8-2.8,5.5-4.3c2.2-2,3.4-1.8,4.2,1
	c0.3,1.2,0.3,2.4,0,3.6c-1.8,4.8-3.8,9.5-5.8,14.1c-0.9,2.2-2.6,4.2-5.1,3.1C124,150,123.1,147.8,122.6,147z"/>
</svg>
