<svg id="Layer_1" data-name="Layer 1" xmlns="http://www.w3.org/2000/svg" viewBox="0 0 24 24"><defs><style>.cls-1{fill:#ff7600;}.cls-2{fill:#fff;}</style></defs><title>checkroom</title><path class="cls-1" d="M24,12A12,12,0,1,1,12,0,12,12,0,0,1,24,12Z" transform="translate(0 0)"/><path class="cls-2" d="M20.55,17l-7.66-5.74v-.81a3.12,3.12,0,1,0-4-3h1.78A1.34,1.34,0,1,1,12,8.83a.86.86,0,0,0-.86.88v1.57L3.45,17A.89.89,0,0,0,4,18.63H20A.89.89,0,0,0,20.55,17Zm-13.9-.17,5.35-4,5.35,4Z" transform="translate(0 0)"/></svg>