<svg id="Layer_1" data-name="Layer 1" xmlns="http://www.w3.org/2000/svg" viewBox="0 0 24 24"><defs><style>.cls-1{fill:#ff7600;}.cls-2{fill:#fff;}</style></defs><title>living</title><path class="cls-1" d="M24,12A12,12,0,1,1,12,0,12,12,0,0,1,24,12Z"/><path class="cls-2" d="M16.31,10.76v-1A2.25,2.25,0,0,0,14.06,7.5H9.94A2.25,2.25,0,0,0,7.69,9.75v1a1.86,1.86,0,0,0-.94,1.62V15a1.5,1.5,0,0,0,1.5,1.5h7.5a1.5,1.5,0,0,0,1.5-1.5V12.38A1.86,1.86,0,0,0,16.31,10.76ZM9.94,8.62h4.12a1.14,1.14,0,0,1,1.13,1.13v.77a1.86,1.86,0,0,0-1.69,1.86v.37h-3v-.37a1.86,1.86,0,0,0-1.69-1.86V9.75A1.14,1.14,0,0,1,9.94,8.62ZM16.12,15a.37.37,0,0,1-.37.38H8.25A.37.37,0,0,1,7.88,15V12.38a.75.75,0,0,1,.74-.76.76.76,0,0,1,.76.76v1.5h5.24v-1.5a.76.76,0,0,1,.76-.76.75.75,0,0,1,.74.76ZM18,6V18H6V6H18m0-1.5H6A1.51,1.51,0,0,0,4.5,6V18A1.5,1.5,0,0,0,6,19.5H18A1.5,1.5,0,0,0,19.5,18V6A1.5,1.5,0,0,0,18,4.5Z"/></svg>